<?xml version="1.0" standalone="no"?>
<!DOCTYPE svg PUBLIC "-//W3C//DTD SVG 20010904//EN"
 "http://www.w3.org/TR/2001/REC-SVG-20010904/DTD/svg10.dtd">
<svg version="1.0" xmlns="http://www.w3.org/2000/svg"
 width="1139.000000pt" height="1080.000000pt" viewBox="0 0 1139.000000 1080.000000"
 preserveAspectRatio="xMidYMid meet">

<g transform="translate(0.000000,1080.000000) scale(0.100000,-0.100000)"
fill="#000000" stroke="none">
<path d="M2 9768 l3 -1032 40 -23 c23 -13 57 -23 81 -23 27 0 51 -8 74 -25 19
-14 42 -25 52 -25 22 0 34 -25 20 -43 -5 -6 -12 -34 -16 -62 -4 -27 -13 -66
-20 -85 -8 -19 -18 -60 -24 -91 -7 -36 -20 -66 -36 -84 -15 -16 -24 -30 -22
-32 12 -12 -56 -137 -107 -198 -15 -19 -32 -49 -38 -67 -5 -20 -9 -1536 -9
-4005 l0 -3973 5450 0 c3627 0 5450 3 5450 10 0 6 -4 10 -8 10 -4 0 -15 12
-24 28 -10 15 -30 41 -46 58 -16 17 -47 56 -69 87 -21 30 -75 94 -120 141 -44
47 -94 107 -110 133 -28 47 -49 69 -236 252 -124 121 -139 148 -131 238 4 57
2 73 -15 99 -25 40 -77 52 -138 30 -23 -8 -50 -13 -60 -11 -10 2 -21 4 -25 4
-16 2 -17 40 -3 74 23 55 19 83 -17 123 -24 25 -55 43 -113 63 -79 27 -80 28
-86 67 -6 48 -19 71 -58 108 -34 33 -39 46 -16 46 11 0 15 11 15 40 0 22 -4
40 -10 40 -5 0 -10 10 -11 23 0 20 -1 20 -8 3 -5 -14 -10 -16 -15 -8 -4 7 -5
16 -1 21 3 5 -7 11 -22 13 -19 2 -33 14 -49 43 -12 22 -29 41 -38 43 -9 2 -16
12 -16 22 0 10 -10 26 -22 35 l-23 16 28 -7 c15 -3 27 -3 27 1 0 13 -30 36
-40 30 -5 -3 -19 5 -31 19 -12 14 -26 23 -30 20 -11 -7 -69 24 -69 37 0 5 -10
14 -22 19 -65 29 -83 46 -86 83 -3 40 -17 49 -25 17 -3 -13 -14 -20 -30 -20
-26 0 -67 30 -67 50 0 8 -8 10 -25 6 -37 -9 -89 24 -93 60 -4 28 -3 28 15 11
11 -9 25 -17 31 -17 19 0 14 38 -9 61 l-20 20 28 -3 c17 -2 32 -11 37 -24 7
-16 17 -20 45 -19 36 3 70 -11 84 -32 11 -18 30 -16 23 3 -3 8 -2 12 4 9 21
-13 52 -14 47 -2 -3 7 6 12 23 13 18 1 27 -3 24 -11 -3 -6 2 -18 11 -25 8 -7
15 -18 15 -25 0 -7 9 -23 20 -36 17 -21 21 -22 30 -9 8 11 4 21 -17 39 -21 18
-27 31 -24 57 2 28 -2 36 -21 43 -13 5 -33 5 -47 -1 -26 -10 -43 -2 -22 11 11
7 11 10 0 14 -8 3 -4 6 9 6 26 1 30 21 5 21 -10 0 -31 7 -47 15 -16 9 -37 13
-46 10 -31 -10 -77 47 -85 106 -4 28 -3 54 1 59 11 10 74 1 74 -11 0 -5 7 -9
16 -9 9 0 30 -7 47 -16 60 -31 67 -34 89 -34 21 0 23 4 20 50 -3 41 -1 50 12
50 9 0 19 7 22 15 7 17 34 21 34 5 0 -17 18 -11 22 6 2 14 8 13 34 -10 18 -14
33 -26 35 -26 2 0 3 33 1 74 l-4 75 39 25 c21 14 63 48 93 76 30 28 66 53 80
56 120 26 317 119 395 188 l51 44 54 -10 c30 -5 118 -17 195 -27 159 -22 199
-35 185 -61 -5 -9 -7 -26 -4 -37 3 -12 1 -24 -5 -27 -15 -9 -15 -146 0 -146 6
0 10 -10 9 -22 -4 -47 1 -68 19 -85 37 -36 60 -160 66 -361 3 -80 9 -132 19
-150 14 -26 36 -168 36 -228 0 -17 3 -34 7 -38 12 -11 33 -80 33 -108 0 -15 5
-39 11 -55 6 -15 13 -71 15 -123 2 -52 8 -106 13 -120 11 -29 29 -143 36 -217
2 -28 11 -71 19 -95 16 -44 34 -149 41 -228 2 -25 8 -70 15 -100 6 -30 16 -84
20 -120 20 -139 23 -155 30 -165 4 -5 13 -46 20 -90 6 -44 18 -120 25 -170 8
-50 17 -115 21 -145 11 -95 0 -90 199 -90 l175 0 0 3861 c0 3595 -1 3861 -17
3855 -9 -4 -46 -27 -83 -51 -37 -25 -76 -45 -87 -45 -10 0 -24 -5 -31 -12 -8
-8 -15 -8 -24 -1 -7 6 -36 16 -64 22 -37 9 -57 21 -73 42 -12 16 -29 29 -38
29 -9 0 -34 15 -57 33 -23 18 -55 39 -73 46 -17 7 -41 23 -54 37 -12 13 -32
24 -45 24 -12 0 -24 7 -28 15 -3 8 -12 15 -20 15 -8 0 -27 12 -43 28 -63 61
-149 135 -168 144 -12 5 -30 23 -40 39 -11 16 -53 48 -95 71 -41 22 -93 56
-115 75 -49 42 -51 43 -98 72 -21 13 -43 28 -50 35 -7 7 -39 31 -73 54 -106
73 -105 69 -42 159 151 216 174 252 235 375 19 37 38 70 43 73 12 8 34 89 65
240 15 72 35 154 46 183 10 29 19 70 19 90 0 21 4 42 9 47 11 12 18 67 31 248
5 76 14 155 19 175 16 58 14 119 -7 227 -22 108 -35 149 -51 160 -6 3 -11 14
-11 24 0 10 -14 44 -31 76 -32 61 -34 108 -7 159 6 11 13 30 14 41 7 46 11 61
22 82 7 12 12 29 12 37 0 15 -423 16 -4504 16 l-4504 0 -55 -112 c-72 -147
-97 -203 -97 -215 0 -6 -8 -21 -19 -34 -10 -13 -30 -58 -45 -99 -15 -41 -38
-93 -50 -115 -44 -74 -61 -110 -85 -170 -14 -33 -34 -76 -46 -95 -12 -19 -28
-52 -36 -72 -7 -21 -17 -38 -21 -38 -4 0 -8 -6 -8 -13 0 -8 -9 -22 -20 -32
-11 -10 -20 -26 -20 -36 0 -9 -3 -19 -8 -21 -8 -4 -85 -161 -97 -198 -4 -14
-11 -27 -15 -30 -12 -9 -109 -213 -127 -270 -10 -30 -26 -66 -35 -80 -10 -14
-23 -53 -31 -86 -18 -76 -36 -113 -63 -131 -19 -12 -25 -10 -62 19 -23 18 -41
39 -41 47 -1 8 19 47 44 87 25 39 45 75 45 80 0 4 9 17 20 29 21 22 138 254
161 318 7 21 21 46 31 56 9 11 27 41 39 68 12 26 38 72 58 102 45 69 64 102
96 171 34 70 104 207 183 356 5 10 27 62 48 114 20 52 46 106 56 119 10 13 18
32 18 42 0 19 2 26 33 87 9 19 17 40 17 48 0 8 6 25 14 37 8 12 17 32 21 45
l6 22 -640 0 -641 0 2 -1032z m343 -428 c3 -5 -1 -10 -9 -10 -9 0 -16 5 -16
10 0 6 4 10 9 10 6 0 13 -4 16 -10z m-99 -10 c18 -18 87 -50 95 -44 5 3 9 12
9 20 0 17 2 17 34 3 35 -16 39 -36 16 -76 -11 -19 -20 -39 -20 -45 0 -14 -40
-68 -50 -68 -5 0 -25 15 -43 33 -19 17 -62 54 -96 80 -73 57 -80 83 -23 92 20
4 42 8 47 10 17 6 21 5 31 -5z m5192 -325 c0 -30 -4 -55 -9 -55 -14 0 -11 -30
4 -31 6 0 2 -4 -10 -9 -21 -8 -22 -16 -22 -107 0 -54 -2 -113 -4 -131 -4 -43
14 -58 56 -45 19 6 31 15 29 24 -3 11 -1 11 9 2 10 -10 17 -9 32 4 34 31 237
16 237 -18 0 -4 9 -11 20 -14 11 -3 20 -11 20 -16 0 -6 -4 -7 -10 -4 -5 3 -10
0 -10 -8 0 -8 -11 -26 -25 -41 -14 -15 -23 -31 -20 -36 3 -5 -26 -23 -65 -41
-38 -19 -70 -38 -70 -44 0 -6 -17 -17 -37 -24 -51 -19 -83 -40 -83 -57 0 -8
-10 -14 -24 -14 -27 0 -75 -23 -86 -41 -6 -8 -38 -11 -106 -10 -55 1 -108 2
-119 1 -11 0 -39 0 -63 0 -32 1 -48 -5 -68 -25 -13 -14 -36 -25 -49 -25 -18 0
-25 -5 -25 -20 0 -10 -7 -23 -16 -28 -9 -5 -17 -13 -17 -18 -1 -5 -5 -8 -9 -7
-5 2 -7 0 -5 -5 1 -4 -2 -8 -7 -9 -15 -2 -23 -23 -18 -49 2 -13 9 -21 15 -17
6 4 7 1 3 -6 -5 -7 -14 -10 -22 -7 -7 3 -16 1 -19 -4 -3 -4 1 -10 7 -13 8 -3
-3 -19 -29 -43 -24 -20 -43 -45 -43 -55 0 -10 -12 -22 -27 -27 -16 -6 -23 -11
-16 -11 6 -1 9 -10 6 -21 -3 -11 0 -20 6 -20 6 0 11 5 11 10 0 6 5 10 10 10 6
0 10 -13 10 -30 0 -16 5 -30 10 -30 6 0 10 6 10 13 0 14 73 38 126 43 24 2 34
-2 34 -12 0 -10 12 -14 39 -14 27 0 41 -5 45 -16 5 -13 17 -16 60 -12 41 3 53
1 49 -8 -3 -8 6 -16 21 -20 19 -4 26 -13 26 -30 0 -13 5 -24 10 -24 6 0 10 5
10 11 0 6 7 4 15 -5 18 -18 20 -46 3 -46 -7 0 -5 -5 4 -11 10 -5 24 -9 30 -8
30 4 38 -3 38 -30 0 -16 -7 -34 -15 -41 -21 -17 -19 -30 5 -30 17 0 20 -7 20
-40 0 -28 7 -45 23 -60 21 -20 21 -22 5 -34 -25 -18 -22 -26 10 -27 15 0 21
-3 15 -6 -19 -7 -16 -53 2 -53 8 0 15 -4 15 -10 0 -5 -7 -10 -15 -10 -12 0
-14 -18 -11 -112 3 -62 2 -107 -1 -100 -2 6 -22 12 -43 12 -32 0 -39 -4 -43
-22 -2 -13 -5 -4 -6 20 -1 53 -21 56 -21 2 0 -29 -4 -40 -15 -40 -11 0 -15
-11 -15 -40 0 -22 5 -40 10 -40 7 0 7 -7 -1 -21 -6 -12 -9 -32 -6 -46 3 -18 1
-23 -12 -21 -10 2 -15 12 -13 26 2 17 -2 22 -17 22 -12 0 -21 -7 -21 -15 0 -8
-4 -15 -10 -15 -5 0 -10 7 -10 15 0 8 -4 15 -10 15 -5 0 -10 -8 -10 -18 0 -15
-12 -21 -57 -29 -32 -6 -59 -7 -61 -3 -1 4 -49 5 -105 4 -60 -2 -92 0 -77 4
l25 8 -22 8 c-13 4 -23 15 -23 25 0 10 10 23 23 29 18 9 11 11 -45 11 l-67 1
-12 40 c-7 22 -15 40 -18 40 -4 0 -14 -12 -23 -27 -13 -21 -18 -23 -18 -10 0
13 -9 17 -39 17 -22 0 -44 -6 -51 -15 -7 -8 -19 -15 -27 -15 -7 0 -16 7 -19
15 -4 8 -15 15 -25 15 -10 0 -19 5 -19 11 0 5 5 7 12 3 7 -4 8 -3 4 4 -4 7
-14 12 -22 12 -8 0 -14 7 -14 16 0 12 7 15 23 12 32 -6 31 20 0 35 -17 8 -27
7 -35 -1 -7 -7 -21 -12 -31 -12 -13 0 -17 -5 -13 -15 3 -8 1 -15 -3 -15 -28 0
-28 292 -1 326 12 13 12 18 3 21 -21 7 -15 30 13 47 16 11 24 25 23 39 -2 12
2 32 9 44 7 12 12 29 12 37 0 9 5 16 10 16 6 0 10 9 10 20 0 11 3 20 8 20 4 0
13 14 21 32 8 17 22 39 32 49 10 10 21 30 25 44 3 14 10 25 15 25 5 0 9 7 9
15 0 8 6 15 13 15 15 0 32 30 41 72 4 15 22 42 41 61 19 19 35 40 35 47 0 22
53 110 67 110 7 0 13 6 13 14 0 19 40 89 56 99 7 4 15 21 19 37 4 16 12 33 19
37 7 5 21 27 31 50 10 23 22 40 27 37 4 -3 8 1 8 8 0 7 9 19 19 25 12 7 21 26
23 45 2 18 8 33 13 33 6 0 24 13 40 28 23 21 37 27 57 23 21 -4 32 1 48 21 11
14 23 37 26 50 7 27 34 31 34 6 0 -15 2 -15 9 -4 6 10 5 22 -4 34 -8 12 -11
32 -8 53 4 23 2 34 -6 34 -8 0 -7 6 3 16 19 18 20 31 5 36 -8 3 -6 10 5 20 9
9 16 21 16 26 0 6 13 13 29 17 30 6 53 26 50 41 -4 23 4 33 44 59 23 16 46 34
50 42 8 12 11 12 26 -1 13 -12 18 -32 19 -71z m-281 -200 c0 -8 -6 -15 -14
-15 -14 0 -17 12 -6 23 11 11 20 8 20 -8z m4940 -544 c21 -27 22 -71 2 -71
-12 0 -11 17 1 25 15 9 12 25 -5 25 -8 0 -15 6 -15 14 0 7 -9 16 -21 19 -12 3
-18 10 -15 16 9 14 27 5 53 -28z m-5955 -151 c73 -66 108 -108 108 -129 0 -10
14 -37 30 -60 36 -49 50 -82 57 -131 2 -19 12 -41 20 -47 15 -11 15 -14 1 -30
-8 -10 -20 -33 -26 -51 -6 -18 -20 -45 -30 -60 -11 -15 -29 -46 -41 -69 -12
-24 -25 -43 -29 -43 -14 0 -41 113 -31 131 12 24 12 119 -1 119 -5 0 -10 -5
-10 -11 0 -6 -6 -9 -12 -7 -17 6 -44 -30 -50 -66 -5 -22 -2 -30 13 -33 11 -3
19 -10 19 -15 0 -5 5 -6 12 -2 7 4 8 3 4 -5 -4 -6 -11 -9 -15 -7 -4 3 -29 -13
-55 -34 -44 -36 -53 -40 -106 -40 -44 0 -59 -4 -64 -16 -3 -9 -13 -14 -20 -11
-8 3 -17 -1 -20 -9 -3 -8 -12 -14 -19 -12 -20 5 -67 -38 -67 -60 0 -12 -6 -25
-14 -29 -21 -13 -43 -64 -51 -120 -4 -29 -11 -53 -17 -53 -5 0 -6 -4 -3 -10 3
-5 0 -10 -7 -10 -10 0 -9 -3 2 -10 12 -7 12 -12 0 -34 -44 -83 -67 37 -30 156
11 34 20 72 20 83 0 19 0 19 -15 -2 -8 -11 -17 -40 -21 -64 -4 -24 -10 -48
-14 -54 -9 -11 -14 -39 -34 -181 -11 -82 -17 -96 -50 -138 -21 -25 -42 -43
-48 -40 -12 8 -1 85 23 157 10 31 19 62 19 68 0 5 9 28 20 51 11 23 23 57 26
77 9 48 56 235 87 341 39 132 52 162 147 335 63 114 164 205 226 205 23 0 44
-9 66 -30z m5706 -168 c-5 -25 -35 -27 -43 -3 -3 12 -3 25 0 31 10 16 47 -8
43 -28z m391 10 c1 15 4 14 24 -5 13 -12 21 -28 19 -34 -3 -8 5 -13 21 -13 27
0 90 -46 82 -60 -3 -4 -21 -10 -40 -12 -31 -4 -35 -1 -35 19 0 22 -3 23 -42
17 -30 -5 -39 -4 -34 4 4 7 1 12 -8 12 -22 0 -20 20 2 20 14 1 14 3 -4 13 -20
11 -21 20 -7 57 4 11 8 8 13 -10 5 -16 8 -19 9 -8z m-333 -98 c-5 -13 -10 -14
-18 -6 -6 6 -8 18 -4 28 5 13 10 14 18 6 6 -6 8 -18 4 -28z m408 -310 c32 -31
14 -50 -25 -27 -32 19 -36 29 -16 36 20 9 25 8 41 -9z m106 -30 c0 -21 -4 -33
-10 -29 -17 10 -11 65 7 65 2 0 3 -16 3 -36z m-908 -4 c20 -19 21 -23 8 -88
-10 -56 -10 -73 0 -93 18 -34 30 -40 67 -33 28 5 33 3 39 -20 3 -15 4 -37 2
-51 -4 -21 -2 -24 16 -20 12 3 30 -2 41 -10 16 -13 17 -18 7 -33 -7 -9 -22
-36 -34 -59 -24 -47 -17 -65 32 -86 21 -9 22 -11 7 -14 -14 -4 -18 -11 -14
-29 2 -13 0 -21 -4 -18 -5 3 -9 -4 -9 -16 0 -12 4 -19 9 -16 5 3 14 -1 21 -8
9 -12 4 -20 -27 -40 -21 -14 -61 -30 -88 -36 -60 -11 -135 -34 -161 -48 -11
-6 -55 -23 -99 -38 -44 -15 -93 -33 -110 -40 -36 -16 -256 -35 -269 -24 -19
18 45 150 100 205 13 13 26 36 30 52 4 15 17 42 30 60 13 17 24 38 24 45 0 19
57 136 75 154 8 9 20 24 25 35 6 10 17 19 24 19 8 0 23 20 34 44 12 24 28 46
36 49 9 3 22 23 31 43 20 48 94 132 118 133 10 1 27 -8 39 -19z m92 -165 c-4
-8 -8 -15 -10 -15 -2 0 -4 7 -4 15 0 8 4 15 10 15 5 0 7 -7 4 -15z m-5524
-102 c0 -23 -17 -49 -26 -41 -9 10 4 58 16 58 6 0 10 -8 10 -17z m5952 -158
c29 -24 69 -57 88 -74 l35 -30 -28 -10 c-15 -6 -54 -10 -86 -8 -33 1 -57 -1
-54 -5 2 -5 -1 -8 -7 -8 -15 0 -19 15 -23 86 -3 34 -7 66 -11 72 -5 9 7 19 26
21 4 1 31 -19 60 -44z m-5379 -45 c7 0 6 -4 -3 -10 -10 -6 -11 -10 -2 -10 6 0
12 -11 12 -25 0 -29 -11 -32 -32 -7 -30 35 -31 69 0 57 7 -3 19 -5 25 -5z
m5845 -9 c22 -19 30 -41 14 -41 -13 0 -39 24 -45 43 -8 22 2 21 31 -2z m-4075
-23 c-4 -11 34 -48 50 -49 6 0 -17 -7 -53 -14 -71 -16 -113 -36 -148 -72 -46
-50 -52 14 -5 70 12 16 23 32 23 37 0 4 18 11 40 15 22 4 43 11 46 16 7 12 50
8 47 -3z m-2612 -60 c28 -21 29 -25 23 -68 -8 -56 -12 -64 -29 -50 -10 8 -13
-3 -14 -53 -1 -59 1 -65 24 -75 14 -7 25 -20 25 -31 0 -11 5 -23 10 -26 15 -9
12 -48 -5 -71 -8 -10 -15 -27 -15 -36 -1 -57 -87 -61 -149 -6 -85 76 -132 153
-145 240 -7 47 -7 47 35 78 23 16 50 30 59 30 10 0 20 9 23 19 5 21 38 23 45
3 2 -7 10 -12 19 -12 10 0 12 6 8 21 -7 23 18 59 42 59 8 0 27 -10 44 -22z
m2944 2 c3 -5 1 -10 -4 -10 -6 0 -11 5 -11 10 0 6 2 10 4 10 3 0 8 -4 11 -10z
m52 -70 c6 -22 19 -27 25 -8 2 6 14 -4 26 -23 12 -19 22 -27 22 -19 1 8 6 4
11 -9 6 -16 6 -28 0 -34 -12 -12 -64 0 -56 13 3 6 2 10 -3 10 -5 0 -12 9 -15
21 -4 13 -10 18 -18 13 -7 -4 -10 -3 -5 4 9 16 -13 26 -29 12 -9 -7 -15 -8
-20 0 -3 5 -1 10 5 10 6 0 9 4 6 9 -4 5 0 12 6 14 26 11 40 6 45 -13z m4264
-260 c5 0 9 -7 9 -15 0 -8 -4 -15 -10 -15 -16 0 -51 40 -45 50 4 6 12 4 21 -5
9 -8 20 -15 25 -15z m49 -34 c0 -2 -7 -7 -16 -10 -8 -3 -12 -2 -9 4 6 10 25
14 25 6z m-1190 -2263 c0 -35 -86 -107 -118 -101 -12 2 -4 17 34 56 44 46 84
67 84 45z m1100 -1514 c0 -6 -4 -7 -10 -4 -5 3 -10 11 -10 16 0 6 5 7 10 4 6
-3 10 -11 10 -16z m-1710 -258 c0 -16 -14 -20 -33 -10 -15 9 -17 13 -7 19 14
9 40 3 40 -9z m-153 -343 c-3 -8 -6 -5 -6 6 -1 11 2 17 5 13 3 -3 4 -12 1 -19z
m51 -8 c-2 -6 -8 -6 -18 0 -13 9 -13 11 0 20 15 10 25 0 18 -20z m-191 -311
c56 -27 103 -51 103 -53 0 -2 3 -12 7 -21 5 -16 0 -17 -53 -13 -34 3 -83 16
-116 31 -57 26 -138 90 -138 109 0 21 96 -5 197 -53z m-146 -54 c54 -11 34
-29 -21 -20 -33 6 -39 9 -29 21 6 8 15 11 20 8 5 -3 19 -7 30 -9z"/>
<path d="M5364 9036 c-4 -11 -2 -21 7 -27 18 -11 24 5 10 28 -9 17 -10 17 -17
-1z"/>
<path d="M4925 7219 c-9 -13 -7 -15 28 -23 20 -5 27 -3 27 8 0 23 -43 35 -55
15z"/>
<path d="M4515 7170 c4 -6 11 -8 16 -5 14 9 11 15 -7 15 -8 0 -12 -5 -9 -10z"/>
<path d="M4035 8039 c-66 -15 -155 -112 -155 -168 0 -28 -29 -98 -57 -141 -13
-19 -23 -42 -23 -52 0 -9 -6 -29 -14 -45 -16 -33 -34 -83 -49 -138 -5 -22 -14
-42 -18 -45 -4 -3 -4 -12 1 -20 8 -13 10 -12 10 3 0 9 6 17 14 17 15 0 126
179 126 204 0 16 39 97 50 106 4 3 12 15 19 28 10 19 15 21 27 11 21 -17 57 4
91 55 15 23 38 52 51 65 20 20 23 31 19 65 -5 35 -29 68 -46 65 -3 -1 -24 -5
-46 -10z"/>
<path d="M0 8353 l0 -297 25 34 c13 18 38 67 55 109 17 42 35 85 40 96 33 75
52 245 28 245 -7 0 -24 11 -38 25 -33 34 -96 85 -104 85 -3 0 -6 -134 -6 -297z"/>
<path d="M9480 2398 c0 -19 2 -20 10 -8 13 19 13 30 0 30 -5 0 -10 -10 -10
-22z"/>
<path d="M9380 2052 c0 -11 22 -32 32 -32 5 0 4 9 -2 20 -11 20 -30 28 -30 12z"/>
</g>
</svg>
